<svg xmlns="http://www.w3.org/2000/svg" version="1.1" xmlns:xlink="http://www.w3.org/1999/xlink" xmlns:svgjs="http://svgjs.dev/svgjs" width="1500" height="939" viewBox="0 0 1500 939"><g transform="matrix(1,0,0,1,-0.9090909090909918,-1.5145161290323017)"><svg viewBox="0 0 396 248" data-background-color="#ffffff" preserveAspectRatio="xMidYMid meet" height="939" width="1500" xmlns="http://www.w3.org/2000/svg" xmlns:xlink="http://www.w3.org/1999/xlink"><g id="tight-bounds" transform="matrix(1,0,0,1,0.2400000000000091,0.4000000000000057)"><svg viewBox="0 0 395.52 247.2" height="247.2" width="395.52"><g><svg></svg></g><g><svg viewBox="0 0 395.52 247.2" height="247.2" width="395.52"><g transform="matrix(1,0,0,1,150.18861996360334,47.215199999999996)"><svg viewBox="0 0 95.14276007279331 152.7696" height="152.7696" width="95.14276007279331"><g><svg viewBox="0 0 95.14276007279331 152.7696" height="152.7696" width="95.14276007279331"><g><svg viewBox="0 0 128.16164983401933 205.78763918035628" height="152.7696" width="95.14276007279331"><g><svg viewBox="0 0 128.16164983401933 205.78763918035628" height="205.78763918035628" width="128.16164983401933"><g id="textblocktransform"><svg viewBox="0 0 128.16164983401933 205.78763918035628" height="205.78763918035628" width="128.16164983401933" id="textblock"><g><svg viewBox="0 0 128.16164983401933 151.825483872" height="151.825483872" width="128.16164983401933"><g transform="matrix(1,0,0,1,0,0)"><svg width="128.16164983401933" viewBox="3.8999999999999995 -35.5 30.6 36.25" height="151.825483872" data-palette-color="#ffffff"><path d="M3.9 0L3.9-27.45Q3.9-31.6 6-33.55 8.1-35.5 11.2-35.5L11.2-35.5Q12.15-35.5 13.05-35.35L13.05-35.35 12.6-32.9Q11.7-33 11.3-33L11.3-33Q6.7-33 6.7-27.45L6.7-27.45 6.7-25.05 12.4-25.05 11.2-22.4 6.7-22.4 6.7 0 3.9 0ZM19.15-6.35Q19.45-4.1 21.4-2.98 23.35-1.85 25.75-1.85L25.75-1.85Q28-1.85 29.85-2.88 31.7-3.9 31.7-6.2L31.7-6.2Q31.7-7.7 30.82-8.68 29.95-9.65 28.65-10.25 27.35-10.85 25.15-11.55L25.15-11.55Q22.7-12.35 21.15-13.05 19.6-13.75 18.45-15.03 17.3-16.3 17.1-18.25L17.1-18.25 17.05-18.85Q17.05-20.5 17.97-22.08 18.9-23.65 20.82-24.65 22.75-25.65 25.65-25.65L25.65-25.65Q27.25-25.65 28.47-25.33 29.7-25 30.4-24.65 31.1-24.3 31.25-24.2L31.25-24.2 30.3-21.9Q30.15-22 29.57-22.3 29-22.6 27.95-22.9 26.9-23.2 25.65-23.2L25.65-23.2Q23.25-23.2 21.55-22.08 19.85-20.95 19.85-18.95L19.85-18.95Q19.85-17.05 21.4-16.05 22.95-15.05 26.15-14.05L26.15-14.05Q28.85-13.15 30.5-12.35 32.15-11.55 33.32-10.08 34.5-8.6 34.5-6.25L34.5-6.25Q34.5-3.25 32.27-1.25 30.05 0.75 25.75 0.75L25.75 0.75Q22.9 0.75 20.82-0.23 18.75-1.2 17.67-2.8 16.6-4.4 16.5-6.35L16.5-6.35 19.15-6.35Z" opacity="1" transform="matrix(1,0,0,1,0,0)" fill="#ffffff" class="wordmark-text-0" data-fill-palette-color="primary" id="text-0"></path></svg></g></svg></g><g transform="matrix(1,0,0,1,0,187.66783680256628)"><svg viewBox="0 0 128.16164983401933 18.119802377789984" height="18.119802377789984" width="128.16164983401933"><g transform="matrix(1,0,0,1,0,0)"><svg width="128.16164983401933" viewBox="0.42 -33.33 309.40999999999997 43.75" height="18.119802377789984" data-palette-color="#ffffff"><path d="M19.72-19.24L12.47 1.04 0.42-31.25 4.44-31.25 11.53-12.5Q11.91-11.53 12.15-10.64 12.4-9.76 12.67-8.54L12.67-8.54Q12.95-9.76 13.21-10.64 13.47-11.53 13.82-12.5L13.82-12.5 20.97-32.29 28.09-12.5Q28.4-11.63 28.7-10.75 28.99-9.86 29.24-8.54L29.24-8.54Q29.51-9.86 29.79-10.75 30.07-11.63 30.42-12.5L30.42-12.5 37.5-31.25 41.25-31.25 29.24 1.04 22.01-19.24Q21.7-20.14 21.42-20.99 21.15-21.84 20.87-23.16L20.87-23.16Q20.59-21.84 20.31-20.99 20.03-20.14 19.72-19.24L19.72-19.24ZM54.93 0.42L54.93 0.42Q51.66 0.42 49.08-1.04 46.49-2.5 45.01-5.02 43.54-7.53 43.54-10.63L43.54-10.63Q43.54-13.58 44.96-15.99 46.39-18.4 48.8-19.83 51.21-21.25 54.13-21.25L54.13-21.25Q57.01-21.25 59.41-19.88 61.8-18.51 63.23-16.18 64.65-13.85 64.65-10.9L64.65-10.9 64.65-9.38 51.04-9.38Q50.14-9.38 49.2-9.44 48.26-9.51 47.36-9.65L47.36-9.65Q47.74-6.88 49.88-5 52.01-3.13 54.96-3.13L54.96-3.13Q56.94-3.13 58.64-4.03 60.34-4.93 61.39-6.42L61.39-6.42 62.43-2.15Q60.94-0.94 59.01-0.26 57.08 0.42 54.93 0.42ZM47.25-12.19L47.25-12.19Q49.13-12.5 51.04-12.5L51.04-12.5 57.95-12.5Q58.71-12.5 59.46-12.45 60.21-12.4 60.97-12.33L60.97-12.33Q60.48-14.76 58.54-16.34 56.59-17.92 54.13-17.92L54.13-17.92Q51.59-17.92 49.69-16.23 47.78-14.55 47.25-12.19ZM80.45 0.28L80.45 0.28Q78.29 0.28 76.42-0.54 74.54-1.35 73.12-2.74L73.12-2.74 73.12 0 69.65 0 69.65-33.33 73.4-33.33 73.4-18.37Q74.79-19.65 76.59-20.38 78.4-21.11 80.45-21.11L80.45-21.11Q83.33-21.11 85.67-19.67 88.02-18.23 89.42-15.8 90.83-13.37 90.83-10.42L90.83-10.42Q90.83-7.47 89.42-5.03 88.02-2.6 85.67-1.16 83.33 0.28 80.45 0.28ZM79.96-3.13L79.96-3.13Q81.94-3.13 83.55-4.11 85.17-5.1 86.12-6.75 87.08-8.4 87.08-10.42L87.08-10.42Q87.08-12.43 86.12-14.08 85.17-15.73 83.55-16.72 81.94-17.71 79.96-17.71L79.96-17.71Q77.98-17.71 76.37-16.72 74.75-15.73 73.8-14.08 72.84-12.43 72.84-10.42L72.84-10.42Q72.84-8.4 73.8-6.75 74.75-5.1 76.37-4.11 77.98-3.13 79.96-3.13ZM117.73 0L107.49 0 107.49-31.25 117.73-31.25Q121.97-31.25 125.11-29.86 128.25-28.47 130.3-26.18 132.35-23.89 133.36-21.13 134.37-18.37 134.37-15.63L134.37-15.63Q134.37-12.88 133.36-10.12 132.35-7.36 130.3-5.07 128.25-2.78 125.11-1.39 121.97 0 117.73 0L117.73 0ZM111.45-27.71L111.45-3.54 117.32-3.54Q120.93-3.54 123.39-4.67 125.86-5.8 127.39-7.62 128.91-9.44 129.59-11.56 130.27-13.68 130.27-15.63L130.27-15.63Q130.27-17.57 129.59-19.69 128.91-21.81 127.39-23.63 125.86-25.45 123.39-26.58 120.93-27.71 117.32-27.71L117.32-27.71 111.45-27.71ZM149.71 0.42L149.71 0.42Q146.45 0.42 143.86-1.04 141.27-2.5 139.8-5.02 138.32-7.53 138.32-10.63L138.32-10.63Q138.32-13.58 139.74-15.99 141.17-18.4 143.58-19.83 145.99-21.25 148.91-21.25L148.91-21.25Q151.79-21.25 154.19-19.88 156.58-18.51 158.01-16.18 159.43-13.85 159.43-10.9L159.43-10.9 159.43-9.38 145.82-9.38Q144.92-9.38 143.98-9.44 143.04-9.51 142.14-9.65L142.14-9.65Q142.52-6.88 144.66-5 146.79-3.13 149.74-3.13L149.74-3.13Q151.72-3.13 153.43-4.03 155.13-4.93 156.17-6.42L156.17-6.42 157.21-2.15Q155.72-0.94 153.79-0.26 151.86 0.42 149.71 0.42ZM142.04-12.19L142.04-12.19Q143.91-12.5 145.82-12.5L145.82-12.5 152.73-12.5Q153.49-12.5 154.24-12.45 154.99-12.4 155.75-12.33L155.75-12.33Q155.27-14.76 153.32-16.34 151.38-17.92 148.91-17.92L148.91-17.92Q146.38-17.92 144.47-16.23 142.56-14.55 142.04-12.19ZM182.55-20.83L172.03 1.04 161.51-20.83 165.78-20.83 170.02-11.81Q170.61-10.59 171.13-9.41 171.65-8.23 172.14-6.53L172.14-6.53Q172.66-8.23 173.2-9.43 173.74-10.63 174.29-11.81L174.29-11.81 178.56-20.83 182.55-20.83ZM196.23 0.42L196.23 0.42Q192.97 0.42 190.38-1.04 187.8-2.5 186.32-5.02 184.84-7.53 184.84-10.63L184.84-10.63Q184.84-13.58 186.27-15.99 187.69-18.4 190.1-19.83 192.52-21.25 195.43-21.25L195.43-21.25Q198.32-21.25 200.71-19.88 203.11-18.51 204.53-16.18 205.95-13.85 205.95-10.9L205.95-10.9 205.95-9.38 192.34-9.38Q191.44-9.38 190.5-9.44 189.57-9.51 188.66-9.65L188.66-9.65Q189.05-6.88 191.18-5 193.32-3.13 196.27-3.13L196.27-3.13Q198.25-3.13 199.95-4.03 201.65-4.93 202.69-6.42L202.69-6.42 203.73-2.15Q202.24-0.94 200.31-0.26 198.39 0.42 196.23 0.42ZM188.56-12.19L188.56-12.19Q190.43-12.5 192.34-12.5L192.34-12.5 199.25-12.5Q200.02-12.5 200.76-12.45 201.51-12.4 202.27-12.33L202.27-12.33Q201.79-14.76 199.84-16.34 197.9-17.92 195.43-17.92L195.43-17.92Q192.9-17.92 190.99-16.23 189.08-14.55 188.56-12.19ZM214.7 0L210.95 0 210.95-33.33 214.7-33.33 214.7 0ZM230.88 0.42L230.88 0.42Q227.86 0.42 225.36-1.04 222.86-2.5 221.38-4.97 219.91-7.43 219.91-10.42L219.91-10.42Q219.91-13.44 221.38-15.89 222.86-18.33 225.36-19.79 227.86-21.25 230.88-21.25L230.88-21.25Q233.94-21.25 236.42-19.79 238.9-18.33 240.38-15.89 241.85-13.44 241.85-10.42L241.85-10.42Q241.85-7.43 240.38-4.97 238.9-2.5 236.42-1.04 233.94 0.42 230.88 0.42ZM230.88-3.13L230.88-3.13Q232.89-3.13 234.53-4.11 236.16-5.1 237.13-6.75 238.1-8.4 238.1-10.42L238.1-10.42Q238.1-12.43 237.13-14.08 236.16-15.73 234.53-16.72 232.89-17.71 230.88-17.71L230.88-17.71Q228.87-17.71 227.23-16.72 225.6-15.73 224.63-14.08 223.66-12.43 223.66-10.42L223.66-10.42Q223.66-8.4 224.63-6.75 225.6-5.1 227.23-4.11 228.87-3.13 230.88-3.13ZM250.81 10.42L247.06 10.42 247.06-20.83 250.53-20.83 250.53-18.09Q251.95-19.51 253.83-20.31 255.7-21.11 257.86-21.11L257.86-21.11Q260.74-21.11 263.08-19.67 265.43-18.23 266.83-15.8 268.24-13.37 268.24-10.42L268.24-10.42Q268.24-7.47 266.83-5.03 265.43-2.6 263.08-1.16 260.74 0.28 257.86 0.28L257.86 0.28Q255.81 0.28 254-0.45 252.2-1.18 250.81-2.47L250.81-2.47 250.81 10.42ZM257.37-3.13L257.37-3.13Q259.35-3.13 260.96-4.11 262.58-5.1 263.53-6.75 264.49-8.4 264.49-10.42L264.49-10.42Q264.49-12.43 263.53-14.08 262.58-15.73 260.96-16.72 259.35-17.71 257.37-17.71L257.37-17.71Q255.39-17.71 253.78-16.72 252.16-15.73 251.21-14.08 250.25-12.43 250.25-10.42L250.25-10.42Q250.25-8.4 251.21-6.75 252.16-5.1 253.78-4.11 255.39-3.13 257.37-3.13ZM283.38 0.42L283.38 0.42Q280.11 0.42 277.52-1.04 274.94-2.5 273.46-5.02 271.99-7.53 271.99-10.63L271.99-10.63Q271.99-13.58 273.41-15.99 274.83-18.4 277.25-19.83 279.66-21.25 282.58-21.25L282.58-21.25Q285.46-21.25 287.85-19.88 290.25-18.51 291.67-16.18 293.1-13.85 293.1-10.9L293.1-10.9 293.1-9.38 279.49-9.38Q278.58-9.38 277.65-9.44 276.71-9.51 275.81-9.65L275.81-9.65Q276.19-6.88 278.32-5 280.46-3.13 283.41-3.13L283.41-3.13Q285.39-3.13 287.09-4.03 288.79-4.93 289.83-6.42L289.83-6.42 290.88-2.15Q289.38-0.94 287.46-0.26 285.53 0.42 283.38 0.42ZM275.7-12.19L275.7-12.19Q277.58-12.5 279.49-12.5L279.49-12.5 286.4-12.5Q287.16-12.5 287.91-12.45 288.65-12.4 289.42-12.33L289.42-12.33Q288.93-14.76 286.99-16.34 285.04-17.92 282.58-17.92L282.58-17.92Q280.04-17.92 278.13-16.23 276.22-14.55 275.7-12.19ZM301.85 0L298.1 0 298.1-20.83 301.57-20.83 301.57-17.01Q302.68-18.85 304.52-19.95 306.36-21.04 308.89-21.04L308.89-21.04 309.83-17.29Q309.17-17.5 308.3-17.5L308.3-17.5Q305.39-17.5 303.62-15.64 301.85-13.78 301.85-10.35L301.85-10.35 301.85 0Z" opacity="1" transform="matrix(1,0,0,1,0,0)" fill="#ffffff" class="slogan-text-1" data-fill-palette-color="secondary" id="text-1"></path></svg></g></svg></g></svg></g></svg></g></svg></g></svg></g></svg></g><path d="M66.643 41.215L66.643 0 313.843 0 313.843 247.2 66.643 247.2 66.643 205.985 76.807 205.985 76.807 237.036 303.678 237.036 303.678 10.164 76.807 10.164 76.807 41.215Z" fill="#ffffff" stroke="transparent" data-fill-palette-color="tertiary"></path></svg></g><defs></defs></svg><rect width="395.52" height="247.2" fill="none" stroke="none" visibility="hidden"></rect></g></svg></g></svg>