<svg width="146px" height="35px" viewBox="0 0 355 85" xmlns="http://www.w3.org/2000/svg" class="img-fluid logo-height spark-color-orange-dark"><defs></defs> <g id="spark-logo"><path d="M134.17,26a4.73,4.73,0,0,1-1.2,1.37,2.66,2.66,0,0,1-1.62.46,4,4,0,0,1-1.89-.55L127.18,26a18.85,18.85,0,0,0-2.91-1.24,11.61,11.61,0,0,0-3.73-.55q-3.62,0-5.39,1.54a5.25,5.25,0,0,0-1.77,4.17,3.85,3.85,0,0,0,1.07,2.78,9.07,9.07,0,0,0,2.79,1.9,29,29,0,0,0,4,1.47c1.49.44,3,.94,4.55,1.49a38.48,38.48,0,0,1,4.55,1.92,14.71,14.71,0,0,1,4,2.82,13.07,13.07,0,0,1,2.8,4.16,14.88,14.88,0,0,1,1.06,5.92,19.24,19.24,0,0,1-1.33,7.2,16.86,16.86,0,0,1-3.86,5.85,18,18,0,0,1-6.24,3.92,23.45,23.45,0,0,1-8.44,1.43,26.71,26.71,0,0,1-5.27-.54,31.64,31.64,0,0,1-5.2-1.5,30.83,30.83,0,0,1-4.72-2.31,19.39,19.39,0,0,1-3.84-3l3.81-6a3,3,0,0,1,1.18-1.11,3.4,3.4,0,0,1,1.63-.41,4.39,4.39,0,0,1,2.31.72l2.62,1.6a21.6,21.6,0,0,0,3.37,1.6,12.7,12.7,0,0,0,4.49.72A8.56,8.56,0,0,0,124.08,59,5.89,5.89,0,0,0,126,54.15,4.62,4.62,0,0,0,125,51a8.1,8.1,0,0,0-2.79-2,26.83,26.83,0,0,0-3.94-1.41q-2.22-.62-4.53-1.35a34.05,34.05,0,0,1-4.53-1.83,14.05,14.05,0,0,1-4-2.86,13.42,13.42,0,0,1-2.79-4.41,17.57,17.57,0,0,1-1.07-6.53,15.79,15.79,0,0,1,5-11.39,18.32,18.32,0,0,1,6-3.71,22.2,22.2,0,0,1,8.11-1.39,31,31,0,0,1,5,.4,26.6,26.6,0,0,1,4.59,1.18A24.21,24.21,0,0,1,134,17.54,18.57,18.57,0,0,1,137.36,20Z" class="dark-grey"></path> <path d="M155.08,51.84v19H141.93V14.09h20a33.12,33.12,0,0,1,10.29,1.42,19.86,19.86,0,0,1,7.09,3.91,15.25,15.25,0,0,1,4.1,5.88,19.94,19.94,0,0,1,1.32,7.31,21.49,21.49,0,0,1-1.36,7.79,15.64,15.64,0,0,1-4.16,6.07,19.66,19.66,0,0,1-7.1,3.94,32.48,32.48,0,0,1-10.18,1.43Zm0-9.93h6.84c3.43,0,5.89-.81,7.4-2.45a9.74,9.74,0,0,0,2.25-6.85,10.27,10.27,0,0,0-.58-3.54,7.2,7.2,0,0,0-1.77-2.74,7.81,7.81,0,0,0-3-1.77,13.1,13.1,0,0,0-4.3-.62h-6.84Z" class="dark-grey"></path> <path d="M234.05,70.79h-10.2A4.73,4.73,0,0,1,221,70a4.08,4.08,0,0,1-1.53-2l-3.35-9.88H194.6l-3.35,9.88A4.52,4.52,0,0,1,187,70.79H176.7l21.94-56.7H212.1ZM197.63,49.11h15.49L207.9,33.59c-.34-1-.73-2.15-1.18-3.49s-.91-2.78-1.35-4.33c-.41,1.58-.84,3-1.28,4.39s-.86,2.52-1.25,3.5Z" class="dark-grey"></path> <path d="M250.44,49.81v21H237.29V14.09h18.44a37.5,37.5,0,0,1,10.48,1.27,19.57,19.57,0,0,1,7.08,3.52,13.28,13.28,0,0,1,4,5.33,17.66,17.66,0,0,1,1.25,6.69,18.14,18.14,0,0,1-.74,5.22,16.12,16.12,0,0,1-2.2,4.53A17,17,0,0,1,272,44.36a18.94,18.94,0,0,1-4.88,2.69,12.87,12.87,0,0,1,2.47,1.63,9.76,9.76,0,0,1,2,2.38l12.06,19.73h-11.9a5,5,0,0,1-4.75-2.5L257.6,51.84a4,4,0,0,0-1.46-1.56,4.93,4.93,0,0,0-2.36-.47Zm0-9.06h5.29a13.63,13.63,0,0,0,4.57-.68,8.33,8.33,0,0,0,3.09-1.89,7.17,7.17,0,0,0,1.75-2.82,10.68,10.68,0,0,0,.55-3.49A7.29,7.29,0,0,0,263.26,26c-1.63-1.4-4.13-2.1-7.53-2.1h-5.29Z" class="dark-grey"></path> <path d="M300.16,37.05h2.1a4.78,4.78,0,0,0,4.2-1.83L319.22,16.7a5.48,5.48,0,0,1,2.39-2.06,8.64,8.64,0,0,1,3.29-.55h11.44L319.53,37a11.21,11.21,0,0,1-3.85,3.42,10.16,10.16,0,0,1,2.7,1.5,9.9,9.9,0,0,1,2.24,2.55l17.12,26.31H326a10.64,10.64,0,0,1-1.93-.16,4.76,4.76,0,0,1-1.38-.47,3.83,3.83,0,0,1-1-.76,7.42,7.42,0,0,1-.82-1L308,48.64a3.93,3.93,0,0,0-1.77-1.53,7.67,7.67,0,0,0-2.9-.45h-3.19V70.79H287V14.09h13.15Z" class="dark-grey"></path> <path d="M340.17,63.7a7,7,0,0,1,2-5,7.2,7.2,0,0,1,2.23-1.51,7.06,7.06,0,0,1,2.82-.56,7,7,0,0,1,2.78.56,7.29,7.29,0,0,1,2.25,1.51,7,7,0,0,1,2.06,5,7.1,7.1,0,0,1-.55,2.8,6.6,6.6,0,0,1-1.51,2.25,6.93,6.93,0,0,1-2.25,1.5,7.32,7.32,0,0,1-2.78.54,7.42,7.42,0,0,1-2.82-.54,6.88,6.88,0,0,1-3.72-3.75A7.27,7.27,0,0,1,340.17,63.7Z" class="logo-color"></path> <path d="M70.86,0H14.17A14.18,14.18,0,0,0,0,14.17v56.7A14.18,14.18,0,0,0,14.17,85H70.86A14.17,14.17,0,0,0,85,70.87V14.17A14.17,14.17,0,0,0,70.86,0Zm-.3,41-9.14,5.28,8.39-9.13Zm-1-4.75-9.08,9.87L67.3,32Zm-34.6-5,7.23,13.33a1.41,1.41,0,0,0-.17.32l-10.19-.65,0,0Zm-.53-1.59L38.11,18.4,44,24ZM42,45.7a1.35,1.35,0,0,0,.93.94L43.06,58a1,1,0,0,0-.17.1L32.5,45.1ZM43,44l-.18.05L35.43,30.44l9.38-4.19Zm8.41-12-7.6,12L45.56,26.8,51,30.86a1.94,1.94,0,0,0,0,.24A1.36,1.36,0,0,0,51.41,32.05ZM44.46,46l13.38,2.21a1.38,1.38,0,0,0,.29.65L44.31,58.1a1.44,1.44,0,0,0-.45-.17l-.15-11.32A1.35,1.35,0,0,0,44.46,46ZM58,47.37,44.59,45.16a1.42,1.42,0,0,0-.2-.53l7.74-12.22h0l6.26,14.43A1.36,1.36,0,0,0,58,47.37ZM53,32.28a1.34,1.34,0,0,0,.59-.63l12.9.21L59.35,46.65h-.14Zm13.59-1.22-12.9-.21a1.38,1.38,0,0,0-.42-.74L56.93,22Zm-14-1.28-.16,0a1.36,1.36,0,0,0-.94.38L45.78,26l10-3.41Zm3.2-8L45.08,25.36,43.85,19.8ZM43.35,15.19,43,21.59l-3.3-7.42ZM38.28,16.9l-7.4,9.26-4.45-7.41ZM14.13,35.34l6.69-15.78,7.54,4.24Zm18.48-5.57-3.1,12.75L17.67,36.24ZM18.3,37.85l12.58,6.67,0,.14L19.2,54.39Zm1,17.51L30.6,45.92l-3.84,19Zm12.23-9.92,0-.24h0L42.38,58.78a1.45,1.45,0,0,0-.09.47,1.34,1.34,0,0,0,.05.35L27.56,65.05ZM27.77,65.83l15-5.52L40,70.66Zm13.05,5L43.5,60.58h.13a1.39,1.39,0,0,0,.64-.17l12.6,7.77Zm4-11a1.27,1.27,0,0,0,.14-.58,1.3,1.3,0,0,0-.12-.55L58.8,49.32,57.06,67.37Zm13,7.78,1.77-18.39h0l6.68,11.09Zm9-7.92-6.6-11a.2.2,0,0,0,0-.08L70.8,51.43ZM60.49,47.86s0-.06,0-.08l10.16-5.87.26,8.72Z" class="logo-color"></path></g></svg>
