<svg xmlns="http://www.w3.org/2000/svg" version="1.1" xmlns:xlink="http://www.w3.org/1999/xlink" xmlns:svgjs="http://svgjs.dev/svgjs" width="1500" height="939" viewBox="0 0 1500 939"><g transform="matrix(1,0,0,1,-0.9090909090909918,-1.5145161290323017)"><svg viewBox="0 0 396 248" data-background-color="#ffffff" preserveAspectRatio="xMidYMid meet" height="939" width="1500" xmlns="http://www.w3.org/2000/svg" xmlns:xlink="http://www.w3.org/1999/xlink"><g id="tight-bounds" transform="matrix(1,0,0,1,0.2400000000000091,0.4000000000000057)"><svg viewBox="0 0 395.52 247.2" height="247.2" width="395.52"><g><svg></svg></g><g><svg viewBox="0 0 395.52 247.2" height="247.2" width="395.52"><g transform="matrix(1,0,0,1,119.97053341788205,47.215199999999996)"><svg viewBox="0 0 155.57893316423588 152.7696" height="152.7696" width="155.57893316423588"><g><svg viewBox="0 0 155.57893316423588 152.7696" height="152.7696" width="155.57893316423588"><g><svg viewBox="0 0 155.57893316423588 152.7696" height="152.7696" width="155.57893316423588"><g><svg viewBox="0 0 155.57893316423588 152.7696" height="152.7696" width="155.57893316423588"><g id="textblocktransform"><svg viewBox="0 0 155.57893316423588 152.7696" height="152.7696" width="155.57893316423588" id="textblock"><g><svg viewBox="0 0 155.57893316423588 152.7696" height="152.7696" width="155.57893316423588"><g transform="matrix(1,0,0,1,0,0)"><svg width="155.57893316423588" viewBox="1.46 -38.01 39.21 38.5" height="152.7696" data-palette-color="#000000"><path d="M10.16 0L5.64 0 5.64-22.92 1.46-22.92 1.46-26.42 5.64-26.42 5.64-29.13Q5.64-33.37 7.91-35.69 10.18-38.01 14.33-38.01L14.33-38.01Q15.89-38.01 17.43-37.6L17.43-37.6 17.19-33.94Q16.04-34.16 14.75-34.16L14.75-34.16Q12.55-34.16 11.35-32.87 10.16-31.59 10.16-29.2L10.16-29.2 10.16-26.42 15.8-26.42 15.8-22.92 10.16-22.92 10.16 0ZM36.15-7.01L36.15-7.01Q36.15-8.84 34.78-9.85 33.4-10.86 29.97-11.6 26.54-12.33 24.52-13.35 22.51-14.38 21.54-15.8 20.58-17.21 20.58-19.17L20.58-19.17Q20.58-22.41 23.33-24.66 26.07-26.9 30.34-26.9L30.34-26.9Q34.84-26.9 37.63-24.58 40.43-22.27 40.43-18.65L40.43-18.65 35.89-18.65Q35.89-20.51 34.31-21.85 32.74-23.19 30.34-23.19L30.34-23.19Q27.88-23.19 26.49-22.12 25.1-21.04 25.1-19.31L25.1-19.31Q25.1-17.68 26.39-16.85 27.68-16.02 31.06-15.26 34.45-14.5 36.55-13.45 38.64-12.4 39.66-10.93 40.67-9.45 40.67-7.32L40.67-7.32Q40.67-3.78 37.84-1.65 35.01 0.49 30.49 0.49L30.49 0.49Q27.32 0.49 24.88-0.63 22.43-1.76 21.05-3.77 19.68-5.79 19.68-8.13L19.68-8.13 24.19-8.13Q24.31-5.86 26.01-4.53 27.71-3.2 30.49-3.2L30.49-3.2Q33.05-3.2 34.6-4.24 36.15-5.27 36.15-7.01Z" opacity="1" transform="matrix(1,0,0,1,0,0)" fill="#000000" class="wordmark-text-0" data-fill-palette-color="primary" id="text-0"></path></svg></g></svg></g></svg></g></svg></g></svg></g></svg></g></svg></g><path class="border" d="M93.248 41.215L93.248 0 340.448 0 340.448 247.2 93.248 247.2 93.248 205.985 107.025 205.985 107.025 233.423 326.671 233.423 326.671 13.777 107.025 13.777 107.025 41.215Z" fill="#000000" stroke="transparent" data-fill-palette-color="tertiary"></path></svg></g><defs></defs></svg><rect width="395.52" height="247.2" fill="none" stroke="none" visibility="hidden"></rect></g></svg></g></svg>
